<svg width="44" height="44" viewBox="0 0 44 44" fill="none" xmlns="http://www.w3.org/2000/svg">
<g clip-path="url(#clip0_43_701)">
<rect width="44" height="44" rx="11.4286" fill="black"/>
<path d="M7.0715 35.75H12.5715V22.3929L4.71436 16.5V33.3929C4.71436 34.6971 5.77114 35.75 7.0715 35.75Z" fill="#4285F4"/>
<path d="M31.4287 35.75H36.9287C38.233 35.75 39.2859 34.6932 39.2859 33.3929V16.5L31.4287 22.3929" fill="#34A853"/>
<path d="M31.4287 12.1786V22.3928L39.2859 16.5V13.3571C39.2859 10.4421 35.9584 8.78034 33.6287 10.5286" fill="#FBBC04"/>
<path d="M12.5713 22.3928V12.1786L21.9999 19.25L31.4284 12.1786V22.3928L21.9999 29.4643" fill="#EA4335"/>
<path d="M4.71436 13.3571V16.5L12.5715 22.3928V12.1786L10.3715 10.5286C8.03793 8.78034 4.71436 10.4421 4.71436 13.3571Z" fill="#C5221F"/>
</g>
<defs>
<clipPath id="clip0_43_701">
<rect width="44" height="44" fill="white"/>
</clipPath>
</defs>
</svg>
