<svg width="46" height="46" viewBox="0 0 46 46" fill="none" xmlns="http://www.w3.org/2000/svg">
<g clip-path="url(#clip0_43_687)">
<rect width="46" height="46" rx="11.4286" fill="black"/>
<path d="M15.5688 24.6813L18.2976 32.2341C18.2976 32.2341 18.6388 32.9408 19.0041 32.9408C19.3694 32.9408 24.803 27.2882 24.803 27.2882L30.8453 15.6176L15.6662 22.7317L15.5688 24.6813Z" fill="#C8DAEA"/>
<path d="M19.1868 26.6183L18.663 32.1854C18.663 32.1854 18.4437 33.8913 20.1492 32.1854C21.8546 30.4796 23.487 29.1642 23.487 29.1642" fill="#A9C6D8"/>
<path d="M15.6182 24.9507L10.005 23.1219C10.005 23.1219 9.33417 22.8497 9.55018 22.2325C9.59465 22.1053 9.68435 21.997 9.95268 21.8109C11.1964 20.944 32.973 13.1169 32.973 13.1169C32.973 13.1169 33.5879 12.9097 33.9505 13.0475C34.0402 13.0752 34.1209 13.1264 34.1844 13.1956C34.2479 13.2648 34.2919 13.3496 34.3118 13.4414C34.351 13.6034 34.3674 13.7702 34.3605 13.9368C34.3588 14.0809 34.3413 14.2145 34.3281 14.424C34.1955 16.564 30.2264 32.5352 30.2264 32.5352C30.2264 32.5352 29.9889 33.4698 29.1381 33.5018C28.929 33.5085 28.7207 33.4731 28.5256 33.3976C28.3305 33.3221 28.1526 33.2082 28.0025 33.0625C26.3329 31.6263 20.5622 27.7481 19.287 26.8952C19.2583 26.8756 19.2341 26.8501 19.216 26.8203C19.1979 26.7905 19.1865 26.7573 19.1824 26.7227C19.1646 26.6328 19.2623 26.5215 19.2623 26.5215C19.2623 26.5215 29.3106 17.5898 29.578 16.6522C29.5987 16.5795 29.5205 16.5437 29.4155 16.5755C28.7481 16.821 17.1787 24.1272 15.9018 24.9335C15.8099 24.9613 15.7128 24.9672 15.6182 24.9507V24.9507Z" fill="white"/>
</g>
<defs>
<clipPath id="clip0_43_687">
<rect width="46" height="46" fill="white"/>
</clipPath>
</defs>
</svg>
