<svg width="46" height="46" viewBox="0 0 46 46" fill="none" xmlns="http://www.w3.org/2000/svg">
<g clip-path="url(#clip0_43_693)">
<rect width="46" height="46" rx="11.4286" fill="black"/>
<path fill-rule="evenodd" clip-rule="evenodd" d="M37.6704 15.8475C37.8835 15.1368 37.6704 14.6146 36.656 14.6146H33.3019C32.449 14.6146 32.0558 15.0657 31.8426 15.5632C31.8426 15.5632 30.1369 19.7208 27.7205 22.4214C26.9388 23.2032 26.5834 23.4519 26.157 23.4519C25.9438 23.4519 25.6351 23.2032 25.6351 22.4925V15.8475C25.6351 14.9947 25.3876 14.6146 24.6769 14.6146H19.406C18.8731 14.6146 18.5525 15.0104 18.5525 15.3855C18.5525 16.194 19.7607 16.3805 19.8852 18.6547V23.5941C19.8852 24.6771 19.6896 24.8734 19.2632 24.8734C18.1261 24.8734 15.3602 20.6972 13.7197 15.9186C13.3982 14.9898 13.0758 14.6146 12.2185 14.6146H8.86437C7.90603 14.6146 7.71436 15.0657 7.71436 15.5632C7.71436 16.4516 8.85149 20.8579 13.0091 26.6856C15.7807 30.6655 19.6859 32.8229 23.2394 32.8229C25.3714 32.8229 25.6352 32.3437 25.6352 31.5184V28.5104C25.6352 27.5521 25.8372 27.3608 26.5123 27.3608C27.0098 27.3608 27.8627 27.6095 29.8527 29.5284C32.1269 31.8027 32.5018 32.8229 33.781 32.8229H37.1352C38.0935 32.8229 38.5727 32.3437 38.2963 31.3981C37.9938 30.4557 36.908 29.0883 35.4672 27.4674C34.6854 26.5435 33.5128 25.5486 33.1574 25.051C32.6599 24.4114 32.802 24.1271 33.1574 23.5586C33.1574 23.5586 37.2439 17.8019 37.6704 15.8475Z" fill="white"/>
</g>
<defs>
<clipPath id="clip0_43_693">
<rect width="46" height="46" fill="white"/>
</clipPath>
</defs>
</svg>
