<svg width="42" height="42" viewBox="0 0 42 42" fill="none" xmlns="http://www.w3.org/2000/svg">
<g clip-path="url(#clip0_43_712)">
<rect x="0.375" width="41.625" height="42" rx="11.4286" fill="black"/>
<path fill-rule="evenodd" clip-rule="evenodd" d="M32.0235 10.1572C29.2154 7.34583 25.4811 5.79691 21.5025 5.7952C13.3045 5.7952 6.63233 12.467 6.62904 20.6675C6.62803 23.2888 7.31277 25.8474 8.61441 28.1031L6.50439 35.8102L14.3889 33.742C16.5614 34.9269 19.0072 35.5515 21.4965 35.5524H21.5026C29.6997 35.5524 36.3725 28.8797 36.3759 20.6791C36.3773 16.7052 34.8316 12.9684 32.0235 10.1572ZM21.5026 33.0405H21.4976C19.2794 33.0397 17.1037 32.4437 15.2058 31.3173L14.7543 31.0496L10.0755 32.2768L11.3243 27.7151L11.0304 27.2471C9.79299 25.279 9.1393 23.0042 9.14031 20.6682C9.14303 13.8523 14.6886 8.30718 21.5076 8.30718C24.8094 8.30833 27.9134 9.5958 30.2473 11.9326C32.5813 14.2693 33.8658 17.3752 33.8645 20.6784C33.8618 27.4948 28.3162 33.0405 21.5026 33.0405ZM28.2834 23.7818C27.9118 23.5959 26.0848 22.6968 25.7441 22.5727C25.4035 22.4489 25.1557 22.3868 24.908 22.7589C24.6603 23.131 23.9479 23.968 23.7311 24.2161C23.5143 24.4639 23.2975 24.4951 22.926 24.309C22.5543 24.1231 21.3569 23.7306 19.9374 22.4644C18.8326 21.479 18.0868 20.2621 17.87 19.8899C17.6532 19.5178 17.8468 19.3168 18.033 19.1315C18.2001 18.9649 18.4046 18.6973 18.5905 18.4803C18.7764 18.2634 18.8382 18.1083 18.9622 17.8603C19.0861 17.6123 19.0241 17.3952 18.9311 17.2093C18.8382 17.0232 18.095 15.1939 17.7853 14.4498C17.4836 13.7253 17.1773 13.8233 16.9492 13.8118C16.7326 13.8011 16.4847 13.7987 16.2368 13.7987C15.9891 13.7987 15.5866 13.8917 15.2458 14.2637C14.9053 14.6358 13.9452 15.5349 13.9452 17.3642C13.9452 19.1934 15.2767 20.9604 15.4626 21.2086C15.6484 21.4565 18.0832 25.2102 21.8111 26.8201C22.6976 27.203 23.39 27.4316 23.9297 27.603C24.8201 27.8859 25.6302 27.8458 26.2704 27.7503C26.9845 27.6435 28.4692 26.8512 28.7788 25.9831C29.0885 25.1149 29.0885 24.3708 28.9956 24.2158C28.9028 24.061 28.6551 23.968 28.2834 23.7818Z" fill="white"/>
</g>
<defs>
<clipPath id="clip0_43_712">
<rect width="42" height="42" fill="white"/>
</clipPath>
</defs>
</svg>
